<svg xmlns="http://www.w3.org/2000/svg" width="400" height="400" viewBox="0 0 400 400">
<g>
<path d="M 142.67 294.33 C142.30,293.97 142.00,278.67 142.00,260.33 L 142.00 227.00 L 130.50 227.00 L 119.00 227.00 L 119.00 203.50 L 119.00 180.00 L 130.50 180.00 L 142.00 180.00 L 142.00 168.53 L 142.00 157.06 L 153.75 156.78 L 165.50 156.50 L 165.68 145.50 L 165.87 134.50 L 177.18 134.00 L 188.50 133.50 L 188.78 122.25 L 189.07 111.00 L 200.03 111.00 L 211.00 111.00 L 211.00 122.50 L 211.00 134.00 L 222.47 134.00 L 233.93 134.00 L 234.22 145.25 L 234.50 156.50 L 245.72 156.78 L 256.94 157.06 L 257.22 168.28 L 257.50 179.50 L 269.27 179.78 L 281.04 180.06 L 280.77 203.28 L 280.50 226.50 L 268.75 226.78 L 257.00 227.06 L 257.00 261.03 L 257.00 295.00 L 234.00 295.00 L 211.00 295.00 L 211.00 272.00 L 211.00 249.00 L 200.00 249.00 L 189.00 249.00 L 189.00 272.00 L 189.00 295.00 L 166.17 295.00 C153.61,295.00 143.03,294.70 142.67,294.33 Z" fill="rgb(70,71,61)"/>
</g>
</svg>